<svg height="174" viewBox="0 0 181 174" width="181" xmlns="http://www.w3.org/2000/svg" xmlns:xlink="http://www.w3.org/1999/xlink"><mask id="a" fill="#fff"><path d="m0 173.04358h179.916655v-172.67512379h-179.916655z" fill="#fff" fill-rule="evenodd"/></mask><g fill="none" fill-rule="evenodd" transform="translate(.583333)"><path d="m49.3724506 160.37021c-43.17965153-23.989092-63.1291057-71.1605845-38.9743089-114.0440193 24.1547967-42.88343475 78.2740999-58.7369466 121.4537513-34.7507148 43.176771 23.9890924 62.892915 50.7758634 35.385366 117.4567291-18.75698 45.466568-74.6851568 55.327098-117.8648084 31.338005" fill="#fbc506" mask="url(#a)" transform="translate(0 .092464)"/><path d="m140.966253 38.7762437 14.770546-14.6692184 5.760743 46.4792241-46.800278-5.7212241 13.94964-13.853944c-4.836144-4.711428-10.426946-8.427363-16.766644-11.147805-6.342578-2.7175814-13.1632983-4.0763721-20.4650405-4.0763721-5.6570499 0-11.0404646.8381593-16.1531243 2.5144779-5.1097793 1.6763187-9.8076655 4.0105781-14.0965389 6.9999176-4.2888734 2.9922002-8.0535191 6.5708258-11.2939373 10.7387376-3.2375377 4.1707723-5.8154703 8.7019817-7.7337979 13.5936283l-16.2885017-6.1159885c2.4627178-6.6165956 5.8644367-12.6868143 10.1965157-18.2163774 4.3349593-5.529563 9.3554471-10.2867608 15.058583-14.2744539 5.7031359-3.9876932 11.9765854-7.0914572 18.8203485-9.3112922 6.843763-2.2198349 14.0072473-3.3297524 21.4904529-3.3297524 4.836144 0 9.5369105.4748616 14.0994195 1.4274454 4.562509.9497232 8.943554 2.3113745 13.140255 4.0763722 4.196702 1.7678582 8.165854 3.8990141 11.907457 6.3906072s7.20957 5.323599 10.403902 8.4960177m-49.5510335 101.4115563c5.65705 0 11.0433445-.838159 16.1531245-2.514478 5.109779-1.676318 9.807665-4.010578 14.096539-6.999917 4.288873-2.9922 8.053519-6.570826 11.293937-10.738738 3.240418-4.170772 5.818351-8.701981 7.733798-13.596489l16.288502 6.11885c-2.462718 6.616595-5.861557 12.686814-10.196516 18.216377-4.334959 5.526702-9.355447 10.286761-15.058583 14.274454s-11.976585 7.091457-18.820349 9.311292c-6.843763 2.219835-14.0072469 3.329752-21.4904525 3.329752-4.836144 0-9.5369106-.474861-14.0994193-1.427445s-8.9406736-2.311375-13.1402555-4.079233c-4.1967015-1.764997-8.1658536-3.896153-11.9074564-6.387746s-7.2095703-5.323599-10.4039025-8.496018l-14.7705458 14.669218-5.7607434-46.479224 46.8002788 5.721224-13.94964 13.853944c4.836144 4.711428 10.4269454 8.427363 16.7695238 11.147805 6.3396981 2.717582 13.1632985 4.076372 20.4621603 4.076372" fill="#fff"/><path d="m110.489329 64.3335236 44.421091 5.4294416-5.288362-42.660307c-.034564-.2774794-.213147-.4977465-.481022-.5892861s-.54439-.0257455-.743136.1716367l-13.192102 13.1016031-.509826-.5063283c-3.145366-3.126649-6.610453-5.9529337-10.294448-8.4044782-3.681115-2.4544051-7.647387-4.5827004-11.789361-6.3248131-4.127573-1.7421128-8.502858-3.0980429-13.0077588-4.0363236-4.4876191-.9382807-9.1826249-1.4160029-13.94964-1.4160029-7.3766318 0-14.531475 1.1099174-21.2657839 3.295425-6.7487108 2.1883682-13.0163996 5.2892716-18.6302439 9.2197525-5.6196052 3.9276203-10.6343322 8.6819575-14.903043 14.1257022-4.1246922 5.2606655-7.4342393 11.096314-9.8393496 17.3610544l14.9520093 5.6153813c1.906806-4.6856824 4.4530546-9.0938856 7.5724971-13.1101848 3.2634611-4.2050997 7.1173983-7.8666831 11.4494773-10.8874894s9.1394193-5.4094173 14.2866435-7.0971784c5.1587456-1.6934823 10.6688966-2.5488053 16.3777932-2.5488053 7.3708711 0 14.3500118 1.3902574 20.7501978 4.136445 6.394425 2.7404663 12.109082 6.539359 16.985551 11.2908356l.518467.5063283zm46.074425 7.0742936-49.179466-6.0130065 14.473868-14.3745754c-4.631638-4.3939001-10.020813-7.9267559-16.026388-10.4984461-6.2158423-2.668951-13.0048783-4.0191599-20.1770038-4.0191599-5.5562369 0-10.9137282.8324381-15.9255749 2.47729-5.014727 1.6448519-9.695331 3.9648083-13.9121951 6.908378-4.2139837 2.9378486-7.9613473 6.5021711-11.1355168 10.5899857-3.1828107 4.0963964-5.7492219 8.6104422-7.6329849 13.4162704l-.2592335.6608014-17.6249942-6.6194562.247712-.6665226c2.48-6.6537836 5.9479675-12.8470086 10.3059698-18.4080384 4.3580023-5.5581691 9.4764227-10.4069065 15.2112427-14.4174846 5.7319396-4.010578 12.1292451-7.1744149 19.010453-9.4085529 6.8840882-2.234138 14.1887108-3.3640797 21.7151219-3.3640797 4.8678281 0 9.6607666.4834434 14.2463183 1.4388878 4.5941925.9611656 9.0616495 2.3485625 13.2756325 4.1221419 4.222625 1.7821613 8.272428 3.9533658 12.025552 6.4535407 3.56302 2.374308 6.924414 5.0890288 10.000651 8.081229l12.178211-12.0946676c.587596-.5807043 1.440186-.7752259 2.226527-.5120496.789222.2688976 1.342253.9468626 1.445947 1.7707189zm-120.4600235 64.7785588.5098258.506329c3.1453659 3.126649 6.610453 5.952933 10.2944483 8.404478 3.6782347 2.454405 7.6445064 4.5827 11.7893613 6.327674 4.1448548 1.744973 8.5201393 3.100903 13.0077584 4.033463 4.487619.941141 9.1826248 1.416002 13.9496399 1.416002 7.3737515 0 14.5285948-1.109917 21.2657838-3.295425 6.745831-2.188368 13.013519-5.289271 18.630244-9.214031 5.622486-3.933341 10.634332-8.687679 14.903043-14.131423 4.124692-5.260666 7.434239-11.099175 9.83935-17.361055l-14.95489-5.61252c-1.906806 4.691403-4.450174 9.099606-7.569617 13.110184-3.272102 4.210821-7.123159 7.872405-11.449477 10.89035-4.326318 3.012225-9.130778 5.400836-14.286644 7.091458-5.1645059 1.696343-10.6746569 2.554526-16.3777928 2.554526-7.3622299 0-14.3442508-1.393118-20.7501974-4.139305-6.3973055-2.746188-12.1119629-6.545081-16.9855517-11.293697l-.5184669-.506328 13.4196516-13.327591-44.4210918-5.429442 5.285482 42.663168c.0374448.274618.2160279.497746.4839025.586425.2649941.097261.5443902.028606.7431358-.171637zm49.5510337 22.118253c-4.8678281 0-9.6607665-.486305-14.2463182-1.441749-4.5769106-.952584-9.044367-2.339981-13.275633-4.119281-4.2283856-1.782162-8.2753078-3.956227-12.028432-6.456402-3.5601394-2.374308-6.9215331-5.089028-9.9977701-8.081229l-12.1782114 12.094668c-.5847154.583565-1.4401858.778087-2.2294076.51205-.7863415-.266037-1.3393729-.946863-1.4430662-1.764998l-5.510151-44.482517 49.1794657 6.013007-14.4738676 14.374575c4.6316377 4.3939 10.0179327 7.923895 16.0263879 10.501307 6.2216028 2.668951 13.0106388 4.02202 20.1770035 4.02202 5.5504762 0 10.9079675-.835299 15.9255748-2.483011 5.020488-1.647713 9.701092-3.967669 13.912195-6.905517 4.208223-2.932128 7.955587-6.49645 11.135517-10.589986 3.17993-4.090675 5.746342-8.607582 7.632985-13.416271l.259233-.660801 17.624995 6.616596-.250593.666522c-2.474239 6.650923-5.942206 12.844148-10.303089 18.408039-4.355122 5.555308-9.473543 10.406906-15.211243 14.420345-5.73482 4.007717-12.132125 7.174415-19.010453 9.405692-6.884088 2.234138-14.1887106 3.366941-21.7151218 3.366941z" fill="#fbc506"/><path d="m91.4152195 32.2102809c7.3708711 0 14.3500115 1.3902575 20.7501975 4.136445 6.394425 2.7404663 12.109082 6.5393591 16.985552 11.2936963l.518467.5034677-12.376957 12.2920499c-.198746.2002428-.262114.4748615-.169942.7408985.092171.2660369.31396.4433948.590476.4777222l42.044785 5.1376592c.216028.0257455.437816-.0457698.593356-.2031035.158421-.1573337.233311-.3718796.207387-.5921467l-5.176028-41.753493c-.034564-.28034-.213147-.5006071-.481022-.5892861-.267874-.088679-.54151-.0286061-.743136.1687761l-13.192102 13.1016031-.509826-.5034678c-3.145365-3.1266489-6.610453-5.9529336-10.294448-8.4073387-3.681115-2.4515445-7.647387-4.5798398-11.789361-6.3248132-4.127573-1.7392521-8.502857-3.0980428-13.007759-4.0363235-4.487619-.9382808-9.1826244-1.4131424-13.9496395-1.4131424-7.3766318 0-14.5285946 1.1099175-21.265784 3.2925645-6.7487108 2.1912288-13.0163995 5.2921322-18.6302439 9.2197525-5.6196051 3.9276203-10.6343321 8.6819575-14.9030429 14.1257022-4.1246923 5.2606655-7.4313589 11.096314-9.8393496 17.3639149l14.9520093 5.6153814c1.906806-4.6885431 4.4530546-9.0967462 7.5724971-13.1101849 3.2634611-4.2050996 7.1173983-7.866683 11.4494773-10.8903499 4.332079-3.0208063 9.1394193-5.4094173 14.2866434-7.0943178 5.1587457-1.6934823 10.6688967-2.551666 16.3777933-2.551666zm68.4347505 36.017966c-.089292 0-.181464-.0057212-.270755-.0171637l-42.041905-5.1376592c-.823786-.1001214-1.506434-.6464983-1.777189-1.430306-.273636-.7809471-.07489-1.6334094.515586-2.2169743l11.342904-11.2679507c-4.631638-4.3939001-10.020813-7.9238953-16.026388-10.4984462-6.215842-2.6660904-13.0048781-4.0191598-20.1770035-4.0191598-5.5562369 0-10.9137282.8324381-15.9255749 2.47729-5.0147271 1.6448519-9.695331 3.9676688-13.9121951 6.908378-4.2139838 2.9407092-7.9613473 6.5050317-11.1355169 10.5899857-3.1828106 4.0963964-5.7492218 8.6104422-7.6329849 13.419131l-.2592334.6579407-17.6249942-6.6165956.247712-.6693832c2.48-6.6537835 5.9479674-12.8470086 10.3059698-18.4051777 4.3580023-5.5610298 9.4764227-10.4097671 15.2112427-14.4174846 5.7319396-4.0134387 12.1292451-7.1772755 19.010453-9.4085529 6.8840882-2.234138 14.1887108-3.3669404 21.7151219-3.3669404 4.8678281 0 9.6607665.4863041 14.2463185 1.4417485 4.594193.9611656 9.061649 2.3457018 13.275633 4.1192813 4.222625 1.7821613 8.272427 3.9533658 12.025551 6.4535407 3.56302 2.374308 6.924414 5.0890288 10.000651 8.081229l12.178211-12.091807c.587596-.5807043 1.443066-.7780865 2.226527-.5149102.789222.2717581 1.342254.9468626 1.445947 1.7707188l5.173148 41.7534931c.08065.6579408-.144019 1.3072997-.6164 1.7793007-.409013.4062069-.953403.626474-1.520836.626474zm-117.9857842 65.0989481.5098258.503467c3.1453659 3.126649 6.610453 5.952934 10.2944483 8.407339 3.6782346 2.451545 7.6445064 4.57984 11.7893612 6.327674 4.1448549 1.742113 8.5201394 3.100903 13.0077585 4.033463 4.487619.938281 9.1826248 1.413142 13.9496399 1.413142 7.3766318 0 14.5285945-1.109917 21.2657835-3.292564 6.745831-2.191229 13.01352-5.292133 18.630244-9.216892 5.622486-3.933342 10.634333-8.684818 14.903043-14.128563 4.127573-5.260665 7.43424-11.099175 9.83935-17.363915l-14.952009-5.612521c-1.909687 4.691404-4.453055 9.099607-7.572497 13.110185-3.272103 4.210821-7.12316 7.872404-11.449478 10.89035-4.323438 3.015085-9.130778 5.403696-14.286643 7.091457-5.164507 1.696343-10.6746576 2.554527-16.3777935 2.554527-7.36223 0-14.3442509-1.390258-20.7501974-4.136445-6.3973055-2.746188-12.1119629-6.54508-16.9855517-11.293696l-.5184669-.506329 13.4196516-13.327591-44.4210918-5.432302 5.2883624 42.663167c.0345644.27748.2131475.497747.481022.586426.2649942.097261.5443903.028606.7431359-.168776zm49.5510337 22.115391c-4.8678281 0-9.6607665-.486304-14.2463182-1.441748-4.5769106-.952584-9.0414867-2.33712-13.275633-4.116421-4.2283856-1.782161-8.2753078-3.956226-12.0255517-6.456401-3.5630197-2.374308-6.9244135-5.089029-10.0006504-8.081229l-12.1782114 12.091807c-.5875958.583565-1.4373054.778086-2.2294076.51491-.7863415-.268898-1.3393729-.946863-1.4430662-1.764998l-5.510151-44.482517 49.1794657 6.013007-14.4738676 14.374575c4.6316376 4.39104 10.0179326 7.921035 16.0263879 10.501307 6.2216028 2.66609 13.0106388 4.01916 20.1770035 4.01916 5.5504762 0 10.9079675-.835299 15.9255745-2.480151 5.020488-1.647712 9.701092-3.970529 13.912196-6.905517 4.208223-2.934988 7.955586-6.499311 11.135516-10.589986 3.179931-4.093536 5.746342-8.607581 7.632985-13.419131l.259234-.657941 17.624994 6.613735-.247712.669384c-2.47712 6.650923-5.945087 12.844148-10.30597 18.405177-4.355122 5.558169-9.473542 10.409767-15.211243 14.420346-5.73482 4.010578-12.132125 7.174414-19.010453 9.405692-6.884088 2.236998-14.1887103 3.36694-21.7151215 3.36694z" fill="#434143"/><path d="m105.039954 89.2045427c0-7.3489123-13.3994894-25.3278588-13.3994894-25.3278588s-13.4023694 17.9789465-13.4023694 25.3278588 5.9998142 13.3075673 13.4023694 13.3075673c7.3996748 0 13.3994894-5.958655 13.3994894-13.3075673" fill="#fff"/><path d="m89.4902671 66.901495c-2.658583 3.6844683-12.5958652 17.8673827-12.5958652 23.9662075 0 6.8969356 5.6512892 12.5094565 12.5958652 12.5094565 6.9445761 0 12.5958649-5.6125209 12.5958649-12.5094565 0-6.0988248-9.9372818-20.2817392-12.5958649-23.9662075m0 38.071885c-7.8317305 0-14.205993-6.3276734-14.205993-14.1056775 0-7.5291308 13.004878-25.0618219 13.5607898-25.8027204l.6452032-.869626.6480837.869626c.5530313.7408985 13.5579092 18.2735896 13.5579092 25.8027204 0 7.7780041-6.3742623 14.1056775-14.2059929 14.1056775" fill="#434143"/></g></svg>